<?xml version="1.0" encoding="UTF-8"?>
<svg xmlns="http://www.w3.org/2000/svg" xmlns:xlink="http://www.w3.org/1999/xlink" width="13.530001pt" height="11.870001pt" viewBox="0 0 13.530001 11.870001" version="1.1">
<g id="surface87">
<path style=" stroke:none;fill-rule:evenodd;fill:rgb(0%,0%,0%);fill-opacity:1;" d="M 6.671875 0 L 3.988281 10.148438 L 3.949219 10.148438 L 1.96875 5.050781 L 1.769531 5.050781 L 0.179688 6.148438 L 0.339844 6.429688 L 1.378906 6.03125 L 3.710938 11.871094 L 4.128906 11.871094 L 7.128906 0.679688 L 8.289062 0.679688 L 8.289062 0 Z M 6.671875 0 "/>
<path style=" stroke:none;fill-rule:nonzero;fill:rgb(0%,0%,0%);fill-opacity:1;" d="M 7.941406 0 L 13.53125 0 L 13.53125 0.679688 L 7.941406 0.679688 Z M 7.941406 0 "/>
<path style=" stroke:none;fill-rule:evenodd;fill:rgb(0%,0%,0%);fill-opacity:1;" d="M 11.089844 5.46875 L 11.058594 5.46875 L 10.941406 4.960938 C 10.800781 4.421875 10.609375 3.980469 10.371094 3.699219 L 10.21875 3.699219 L 8.828125 3.859375 L 8.828125 4.160156 C 8.828125 4.160156 8.980469 4.128906 9.140625 4.128906 C 9.800781 4.121094 9.96875 4.390625 10.238281 5.230469 L 10.519531 6.140625 L 9.800781 7.191406 C 9.410156 7.75 9.230469 7.761719 9.191406 7.761719 C 9.019531 7.761719 8.78125 7.628906 8.558594 7.628906 C 8.320312 7.628906 8.171875 7.851562 8.171875 8.050781 C 8.171875 8.300781 8.320312 8.539062 8.75 8.539062 C 9.351562 8.539062 9.679688 8.070312 10 7.550781 L 10.640625 6.511719 L 10.679688 6.511719 L 10.929688 7.519531 C 11.070312 8.171875 11.289062 8.550781 11.75 8.550781 C 12.429688 8.550781 12.851562 7.871094 13.140625 7.429688 L 12.929688 7.269531 C 12.660156 7.628906 12.46875 7.828125 12.210938 7.828125 C 11.898438 7.828125 11.699219 7.460938 11.421875 6.539062 L 11.210938 5.859375 L 11.820312 4.890625 C 11.988281 4.609375 12.128906 4.46875 12.359375 4.46875 C 12.488281 4.46875 12.71875 4.570312 12.878906 4.570312 C 13.148438 4.570312 13.339844 4.339844 13.339844 4.101562 C 13.339844 3.820312 13.21875 3.660156 12.839844 3.660156 C 12.25 3.660156 11.851562 4.148438 11.578125 4.628906 Z M 11.089844 5.46875 "/>
</g>
</svg>
